<?xml version="1.0" encoding="UTF-8" standalone="no"?>
<!-- Created with Inkscape (http://www.inkscape.org/) -->

<svg
   width="5.2916665mm"
   height="4.4979167mm"
   viewBox="0 0 5.2916665 4.4979167"
   version="1.1"
   id="svg1"
   xml:space="preserve"
   xmlns="http://www.w3.org/2000/svg"
   xmlns:svg="http://www.w3.org/2000/svg"><defs
     id="defs1" /><g
     id="layer1"
     transform="translate(-101.86458,-146.31459)"
     style="fill:#ece9e4;fill-opacity:1"><g
       style="fill:#ece9e4;fill-opacity:1"
       id="g2"
       transform="matrix(0.00661458,0,0,0.00661458,101.3167,151.71476)"><path
         d="m 480,-424 -196,196 q -11,11 -28,11 -17,0 -28,-11 -11,-11 -11,-28 0,-17 11,-28 L 424,-480 228,-676 q -11,-11 -11,-28 0,-17 11,-28 11,-11 28,-11 17,0 28,11 l 196,196 196,-196 q 11,-11 28,-11 17,0 28,11 11,11 11,28 0,17 -11,28 l -196,196 196,196 q 11,11 11,28 0,17 -11,28 -11,11 -28,11 -17,0 -28,-11 z"
         id="path1-6"
         style="fill:#ece9e4;fill-opacity:1" /></g></g></svg>
