<?xml version="1.0" encoding="UTF-8" standalone="no"?>
<!-- Created with Inkscape (http://www.inkscape.org/) -->

<svg
   width="5.2916665mm"
   height="4.4979167mm"
   viewBox="0 0 5.2916665 4.4979167"
   version="1.1"
   id="svg1"
   xml:space="preserve"
   inkscape:export-filename="menu.svg"
   inkscape:export-xdpi="96"
   inkscape:export-ydpi="96"
   xmlns:inkscape="http://www.inkscape.org/namespaces/inkscape"
   xmlns:sodipodi="http://sodipodi.sourceforge.net/DTD/sodipodi-0.dtd"
   xmlns="http://www.w3.org/2000/svg"
   xmlns:svg="http://www.w3.org/2000/svg"><sodipodi:namedview
     id="namedview1"
     pagecolor="#ffffff"
     bordercolor="#000000"
     borderopacity="0.25"
     inkscape:showpageshadow="2"
     inkscape:pageopacity="0.0"
     inkscape:pagecheckerboard="0"
     inkscape:deskcolor="#d1d1d1"
     inkscape:document-units="mm" /><defs
     id="defs1" /><g
     inkscape:label="Layer 1"
     inkscape:groupmode="layer"
     id="layer1"
     transform="translate(-101.86458,-146.31459)"><g
       style="fill:#000000"
       id="g2"
       transform="matrix(0.00661458,0,0,0.00661458,101.3167,151.71476)"><path
         d="m 480,-424 -196,196 q -11,11 -28,11 -17,0 -28,-11 -11,-11 -11,-28 0,-17 11,-28 L 424,-480 228,-676 q -11,-11 -11,-28 0,-17 11,-28 11,-11 28,-11 17,0 28,11 l 196,196 196,-196 q 11,-11 28,-11 17,0 28,11 11,11 11,28 0,17 -11,28 l -196,196 196,196 q 11,11 11,28 0,17 -11,28 -11,11 -28,11 -17,0 -28,-11 z"
         id="path1-6"
         style="fill:#000000" /></g></g></svg>
