<?xml version="1.0" encoding="UTF-8" standalone="no"?>
<svg
   width="218.69"
   zoomAndPan="magnify"
   viewBox="0 0 164.0175 29.999999"
   height="40"
   preserveAspectRatio="xMidYMid"
   version="1.0"
   id="svg31"
   xmlns="http://www.w3.org/2000/svg"
   xmlns:svg="http://www.w3.org/2000/svg">
  <defs
     id="defs1" />
  <g
     fill="#ffffff"
     fill-opacity="1"
     id="g4"
     style="fill:#ffffff"
     transform="translate(-105,-176.25)">
    <g
       transform="translate(105.15089,202.12499)"
       id="g3"
       style="fill:#ffffff">
      <g
         id="g2"
         style="fill:#ffffff">
        <path
           d="m 12.75,-4.40625 c 0.21875,0 0.328125,0.101562 0.328125,0.296875 v 3.84375 C 13.078125,-0.0859375 12.96875,0 12.75,0 H 0.328125 C 0.109375,0 0,-0.0859375 0,-0.265625 V -4.40625 Z M 4.515625,-8.921875 H 0 v -14.4375 C 0,-23.535156 0.109375,-23.625 0.328125,-23.625 H 4.21875 c 0.195312,0 0.296875,0.08984 0.296875,0.265625 z m 0,0"
           id="path2"
           style="fill:#ffffff" />
      </g>
    </g>
  </g>
  <g
     fill="#ffffff"
     fill-opacity="1"
     id="g7"
     style="fill:#ffffff"
     transform="translate(-105,-176.25)">
    <g
       transform="translate(118.90698,202.12499)"
       id="g6"
       style="fill:#ffffff">
      <g
         id="g5"
         style="fill:#ffffff">
        <path
           d="M 11.21875,-4.40625 V 0 H 0.328125 C 0.109375,0 0,-0.0859375 0,-0.265625 v -23.09375 C 0,-23.535156 0.109375,-23.625 0.328125,-23.625 H 11.21875 v 4.28125 H 4.515625 V -14 h 9.28125 c 0.207031,0 0.3125,0.08984 0.3125,0.265625 v 3.75 c 0,0.179687 -0.105469,0.265625 -0.3125,0.265625 h -9.28125 v 5.3125 z m 0,0"
           id="path4"
           style="fill:#ffffff" />
      </g>
    </g>
  </g>
  <g
     fill="#ffffff"
     fill-opacity="1"
     id="g10"
     style="fill:#ffffff"
     transform="translate(-105,-176.25)">
    <g
       transform="translate(133.72576,202.12499)"
       id="g9"
       style="fill:#ffffff">
      <g
         id="g8"
         style="fill:#ffffff">
        <path
           d="M 18.015625,-19.28125 H 13.5 c -0.574219,-0.01953 -1.246094,-0.0039 -2.015625,0.04687 -0.773437,0.04297 -1.558594,0.1875 -2.359375,0.4375 -0.804688,0.25 -1.558594,0.640625 -2.265625,1.171875 -0.699219,0.53125 -1.261719,1.273438 -1.6875,2.21875 -0.417969,0.9375 -0.625,2.136719 -0.625,3.59375 0,1.875 0.382813,3.382812 1.15625,4.515625 0.78125,1.125 1.84375,1.929687 3.1875,2.40625 1.351563,0.46875 2.890625,0.664063 4.609375,0.578125 v -5.90625 H 8.953125 v -4.515625 h 9.0625 V -0.26563 C 18.015625,-0.0859375 17.90625,0 17.6875,0 H 13.84375 C 12.6875,0 11.472656,-0.078125 10.203125,-0.234375 8.929688,-0.390625 7.691406,-0.691406 6.484375,-1.140625 5.273438,-1.597656 4.179688,-2.257812 3.203125,-3.125 2.234375,-3.988281 1.457031,-5.128906 0.875,-6.546875 0.289062,-7.972656 0,-9.726562 0,-11.8125 c 0,-2.03125 0.285156,-3.738281 0.859375,-5.125 0.570313,-1.382812 1.34375,-2.515625 2.3125,-3.390625 0.976563,-0.875 2.066406,-1.550781 3.265625,-2.03125 1.195312,-0.488281 2.4375,-0.820313 3.71875,-1 1.28125,-0.175781 2.507812,-0.265625 3.6875,-0.265625 h 3.84375 c 0.21875,0 0.328125,0.08984 0.328125,0.265625 z m 0,0"
           id="path7"
           style="fill:#ffffff" />
      </g>
    </g>
  </g>
  <g
     fill="#ffffff"
     fill-opacity="1"
     id="g13"
     style="fill:#ffffff"
     transform="translate(-105,-176.25)">
    <g
       transform="translate(152.64775,202.12499)"
       id="g12"
       style="fill:#ffffff">
      <g
         id="g11"
         style="fill:#ffffff">
        <path
           d="m 18.546875,-0.359375 c 0.03906,0.085937 0.03125,0.167969 -0.03125,0.25 C 18.453125,-0.0351562 18.375,0 18.28125,0 H 14.203125 C 14.066406,0 13.976562,-0.0546875 13.9375,-0.171875 L 9.265625,-13.34375 4.671875,-0.171875 C 4.648438,-0.0546875 4.550781,0 4.375,0 H 0.328125 c -0.136719,0 -0.2304688,-0.0351562 -0.28125,-0.109375 -0.05078125,-0.082031 -0.0546875,-0.164063 -0.015625,-0.25 l 8.953125,-23.09375 c 0.03125,-0.113281 0.125,-0.171875 0.28125,-0.171875 0.164063,0 0.265625,0.05859 0.296875,0.171875 z m 0,0"
           id="path10"
           style="fill:#ffffff" />
      </g>
    </g>
  </g>
  <g
     fill="#ffffff"
     fill-opacity="1"
     id="g16"
     style="fill:#ffffff"
     transform="translate(-105,-176.25)">
    <g
       transform="translate(172.13061,202.12499)"
       id="g15"
       style="fill:#ffffff">
      <g
         id="g14"
         style="fill:#ffffff">
        <path
           d="m 12.75,-4.40625 c 0.21875,0 0.328125,0.101562 0.328125,0.296875 v 3.84375 C 13.078125,-0.0859375 12.96875,0 12.75,0 H 0.328125 C 0.109375,0 0,-0.0859375 0,-0.265625 V -4.40625 Z M 4.515625,-8.921875 H 0 v -14.4375 C 0,-23.535156 0.109375,-23.625 0.328125,-23.625 H 4.21875 c 0.195312,0 0.296875,0.08984 0.296875,0.265625 z m 0,0"
           id="path13"
           style="fill:#ffffff" />
      </g>
    </g>
  </g>
  <g
     fill="#ffffff"
     fill-opacity="1"
     id="g19"
     style="fill:#ffffff"
     transform="translate(-105,-176.25)">
    <g
       transform="translate(185.8867,202.12499)"
       id="g18"
       style="fill:#ffffff">
      <g
         id="g17"
         style="fill:#ffffff">
        <path
           d="m 19.546875,-23.625 c 0.21875,0 0.328125,0.08984 0.328125,0.265625 v 23.09375 C 19.875,-0.0859375 19.765625,0 19.546875,0 H 15.65625 c -0.02344,0 -0.07031,-0.0078125 -0.140625,-0.03125 -0.0625,-0.0195312 -0.105469,-0.0390625 -0.125,-0.0625 l -10.875,-15.5625 v 9.984375 H 0 v -17.6875 C 0,-23.535156 0.0976562,-23.625 0.296875,-23.625 H 4.21875 c 0.039062,0 0.085938,0.0078 0.140625,0.01563 0.0625,0.01172 0.101563,0.03906 0.125,0.07813 l 10.90625,15.5625 v -15.390625 c 0,-0.175781 0.113281,-0.265625 0.34375,-0.265625 z m 0,0"
           id="path16"
           style="fill:#ffffff" />
      </g>
    </g>
  </g>
  <g
     fill="#ffffff"
     fill-opacity="1"
     id="g22"
     style="fill:#ffffff"
     transform="translate(-105,-176.25)">
    <g
       transform="translate(206.75698,202.12499)"
       id="g21"
       style="fill:#ffffff">
      <g
         id="g20"
         style="fill:#ffffff">
        <path
           d="m 13.40625,-19.109375 h 5.5 l -5.703125,8 v 10.84375 C 13.203125,-0.0859375 13.09375,0 12.875,0 H 9 C 8.789062,0 8.6875,-0.0859375 8.6875,-0.265625 v -10.84375 C 7.269531,-13.128906 5.835938,-15.144531 4.390625,-17.15625 2.941406,-19.164062 1.5,-21.175781 0.0625,-23.1875 -0.0195312,-23.28125 -0.03125,-23.375 0.03125,-23.46875 0.09375,-23.570312 0.203125,-23.625 0.359375,-23.625 h 4.65625 c 0.144531,0 0.242187,0.03125 0.296875,0.09375 l 5.609375,7.875 z m 0,0"
           id="path19"
           style="fill:#ffffff" />
      </g>
    </g>
  </g>
  <g
     fill="#ffffff"
     fill-opacity="1"
     id="g28"
     style="fill:#ffffff"
     transform="translate(-105,-176.25)">
    <g
       transform="translate(233.97396,202.12499)"
       id="g27"
       style="fill:#ffffff">
      <g
         id="g26"
         style="fill:#ffffff">
        <path
           d="M 4.515625,-13.375 H 0 v -9.984375 C 0,-23.535156 0.109375,-23.625 0.328125,-23.625 H 4.1875 c 0.21875,0 0.328125,0.08984 0.328125,0.265625 z m 13.140625,-10.25 c 0.21875,0 0.328125,0.08984 0.328125,0.265625 v 23.09375 C 17.984375,-0.0859375 17.875,0 17.65625,0 H 13.796875 C 13.578125,0 13.46875,-0.0859375 13.46875,-0.265625 v -4.15625 H 4.515625 v 4.15625 C 4.515625,-0.0859375 4.40625,0 4.1875,0 H 0.328125 C 0.109375,0 0,-0.0859375 0,-0.265625 v -8.59375 h 4.515625 v 0.03125 h 8.953125 v -14.53125 c 0,-0.175781 0.109375,-0.265625 0.328125,-0.265625 z m 0,0"
           id="path25"
           style="fill:#ffffff" />
      </g>
    </g>
  </g>
  <g
     fill="#ffffff"
     fill-opacity="1"
     id="g31"
     style="fill:#ffffff"
     transform="translate(-105,-176.25)">
    <g
       transform="translate(252.86643,202.12499)"
       id="g30"
       style="fill:#ffffff">
      <g
         id="g29"
         style="fill:#ffffff">
        <path
           d="m 16.125,-0.390625 c 0.03906,0.105469 0.03516,0.199219 -0.01563,0.28125 C 16.054688,-0.0351562 15.972656,0 15.859375,0 h -4.21875 C 11.484375,0 11.382812,-0.0546875 11.34375,-0.171875 L 7.03125,-9.53125 H 4.484375 v 9.265625 C 4.484375,-0.0859375 4.375,0 4.15625,0 H 0.296875 C 0.0976562,0 0,-0.0859375 0,-0.265625 V -13.875 h 7.9375 c 0.238281,0 0.554688,-0.01953 0.953125,-0.0625 0.394531,-0.03906 0.78125,-0.148438 1.15625,-0.328125 0.382813,-0.175781 0.707031,-0.445313 0.96875,-0.8125 0.269531,-0.363281 0.40625,-0.867187 0.40625,-1.515625 0,-0.65625 -0.140625,-1.164062 -0.421875,-1.53125 -0.28125,-0.375 -0.632812,-0.644531 -1.046875,-0.8125 -0.417969,-0.164062 -0.8125,-0.273438 -1.1875,-0.328125 -0.375,-0.05078 -0.652344,-0.07813 -0.828125,-0.07813 H 0 V -23.35938 C 0,-23.535156 0.0976562,-23.625 0.296875,-23.625 H 7.9375 c 0.28125,0 0.722656,0.02734 1.328125,0.07813 0.613281,0.04297 1.300781,0.171875 2.0625,0.390625 0.757813,0.21875 1.488281,0.578125 2.1875,1.078125 0.695313,0.492187 1.269531,1.179687 1.71875,2.0625 0.457031,0.886719 0.6875,2.027344 0.6875,3.421875 0,1.199219 -0.199219,2.21875 -0.59375,3.0625 -0.398437,0.835938 -0.929687,1.515625 -1.59375,2.046875 -0.65625,0.53125 -1.375,0.945313 -2.15625,1.234375 0.75,1.679688 1.507813,3.335938 2.28125,4.96875 0.78125,1.636719 1.535156,3.265625 2.265625,4.890625 z m 0,0"
           id="path28"
           style="fill:#ffffff" />
      </g>
    </g>
  </g>
</svg>
