<?xml version="1.0" encoding="UTF-8" standalone="no"?>
<!-- Created with Inkscape (http://www.inkscape.org/) -->

<svg
   width="5.2916665mm"
   height="4.4979167mm"
   viewBox="0 0 5.2916665 4.4979167"
   version="1.1"
   id="svg1"
   xml:space="preserve"
   xmlns="http://www.w3.org/2000/svg"
   xmlns:svg="http://www.w3.org/2000/svg"><defs
     id="defs1" /><g
     id="layer1"
     transform="translate(-101.86458,-146.31459)"
     style="fill:#ece9e4;fill-opacity:1"><g
       style="fill:#ece9e4;fill-opacity:1"
       id="g1"
       transform="matrix(0.00661458,0,0,0.00661458,101.27839,151.675)"><path
         d="m 160,-240 q -17,0 -28.5,-11.5 Q 120,-263 120,-280 q 0,-17 11.5,-28.5 Q 143,-320 160,-320 h 640 q 17,0 28.5,11.5 11.5,11.5 11.5,28.5 0,17 -11.5,28.5 Q 817,-240 800,-240 Z m 0,-200 q -17,0 -28.5,-11.5 Q 120,-463 120,-480 q 0,-17 11.5,-28.5 Q 143,-520 160,-520 h 640 q 17,0 28.5,11.5 11.5,11.5 11.5,28.5 0,17 -11.5,28.5 Q 817,-440 800,-440 Z m 0,-200 q -17,0 -28.5,-11.5 Q 120,-663 120,-680 q 0,-17 11.5,-28.5 Q 143,-720 160,-720 h 640 q 17,0 28.5,11.5 11.5,11.5 11.5,28.5 0,17 -11.5,28.5 Q 817,-640 800,-640 Z"
         id="path1"
         style="fill:#ece9e4;fill-opacity:1" /></g></g></svg>
