<?xml version="1.0" encoding="UTF-8" standalone="no"?>
<!-- Created with Inkscape (http://www.inkscape.org/) -->

<svg
   width="5.2916665mm"
   height="4.4979167mm"
   viewBox="0 0 5.2916665 4.4979167"
   version="1.1"
   id="svg1"
   xml:space="preserve"
   inkscape:export-filename="bitmap.svg"
   inkscape:export-xdpi="96"
   inkscape:export-ydpi="96"
   xmlns:inkscape="http://www.inkscape.org/namespaces/inkscape"
   xmlns:sodipodi="http://sodipodi.sourceforge.net/DTD/sodipodi-0.dtd"
   xmlns="http://www.w3.org/2000/svg"
   xmlns:svg="http://www.w3.org/2000/svg"><sodipodi:namedview
     id="namedview1"
     pagecolor="#ffffff"
     bordercolor="#000000"
     borderopacity="0.25"
     inkscape:showpageshadow="2"
     inkscape:pageopacity="0.0"
     inkscape:pagecheckerboard="0"
     inkscape:deskcolor="#d1d1d1"
     inkscape:document-units="mm" /><defs
     id="defs1" /><g
     inkscape:label="Layer 1"
     inkscape:groupmode="layer"
     id="layer1"
     transform="translate(-101.86458,-146.31459)"><g
       style="fill:#000000"
       id="g1"
       transform="matrix(0.00661458,0,0,0.00661458,101.27839,151.675)"><path
         d="m 160,-240 q -17,0 -28.5,-11.5 Q 120,-263 120,-280 q 0,-17 11.5,-28.5 Q 143,-320 160,-320 h 640 q 17,0 28.5,11.5 11.5,11.5 11.5,28.5 0,17 -11.5,28.5 Q 817,-240 800,-240 Z m 0,-200 q -17,0 -28.5,-11.5 Q 120,-463 120,-480 q 0,-17 11.5,-28.5 Q 143,-520 160,-520 h 640 q 17,0 28.5,11.5 11.5,11.5 11.5,28.5 0,17 -11.5,28.5 Q 817,-440 800,-440 Z m 0,-200 q -17,0 -28.5,-11.5 Q 120,-663 120,-680 q 0,-17 11.5,-28.5 Q 143,-720 160,-720 h 640 q 17,0 28.5,11.5 11.5,11.5 11.5,28.5 0,17 -11.5,28.5 Q 817,-640 800,-640 Z"
         id="path1"
         style="fill:#000000" /></g></g></svg>
