<?xml version="1.0" encoding="UTF-8" standalone="no"?>
<!-- Created with Inkscape (http://www.inkscape.org/) -->

<svg
   width="10.054167mm"
   height="5.6885419mm"
   viewBox="0 0 10.054167 5.688542"
   version="1.1"
   id="svg4273"
   sodipodi:docname="short_logo.svg"
   inkscape:version="1.3.2 (091e20e, 2023-11-25)"
   xmlns:inkscape="http://www.inkscape.org/namespaces/inkscape"
   xmlns:sodipodi="http://sodipodi.sourceforge.net/DTD/sodipodi-0.dtd"
   xmlns="http://www.w3.org/2000/svg"
   xmlns:svg="http://www.w3.org/2000/svg">
  <sodipodi:namedview
     id="namedview1"
     pagecolor="#ffffff"
     bordercolor="#000000"
     borderopacity="0.25"
     inkscape:showpageshadow="2"
     inkscape:pageopacity="0.0"
     inkscape:pagecheckerboard="0"
     inkscape:deskcolor="#d1d1d1"
     inkscape:document-units="mm"
     inkscape:zoom="16.236842"
     inkscape:cx="19"
     inkscape:cy="10.747164"
     inkscape:window-width="1392"
     inkscape:window-height="976"
     inkscape:window-x="0"
     inkscape:window-y="25"
     inkscape:window-maximized="0"
     inkscape:current-layer="svg4273" />
  <defs
     id="defs4270" />
  <g
     id="layer1"
     transform="translate(-79.496434,-116.99888)">
    <path
       style="font-size:7.76111px;line-height:1.25;font-family:'Playfair Display';-inkscape-font-specification:'Playfair Display, Normal';fill:#ffffff;stroke-width:0.264583"
       d="m 80.994329,116.99888 q 0.388055,0 0.589844,0.0931 0.201789,0.0854 0.357011,0.19403 0.09313,0.0543 0.147461,0.0854 0.06209,0.0233 0.116417,0.0233 0.07761,0 0.108655,-0.0854 0.03881,-0.0854 0.06209,-0.25611 h 0.178506 q -0.0078,0.13194 -0.02328,0.3182 -0.0078,0.17851 -0.01552,0.48119 0,0.29492 0,0.78387 h -0.178505 q -0.02328,-0.37253 -0.162984,-0.71402 -0.1397,-0.34149 -0.411339,-0.5588 -0.263877,-0.21731 -0.698499,-0.21731 -0.411339,0 -0.682978,0.24836 -0.263878,0.24835 -0.263878,0.65193 0,0.34925 0.178506,0.58984 0.178505,0.23284 0.473427,0.42686 0.302684,0.18627 0.651934,0.40358 0.403577,0.24836 0.714022,0.49671 0.318205,0.2406 0.496711,0.53552 0.186266,0.29492 0.186266,0.71402 0,0.49671 -0.225072,0.82268 -0.225072,0.32597 -0.597605,0.48895 -0.372534,0.16298 -0.822678,0.16298 -0.411339,0 -0.651933,-0.0931 -0.240595,-0.0931 -0.411339,-0.19403 -0.170744,-0.10865 -0.263878,-0.10865 -0.07761,0 -0.116416,0.0854 -0.03105,0.0854 -0.05433,0.25611 h -0.178506 q 0.01552,-0.16298 0.01552,-0.38029 0.0078,-0.22507 0.0078,-0.58208 0.0078,-0.35701 0.0078,-0.90029 h 0.178505 q 0.03105,0.46566 0.170745,0.86924 0.147461,0.40358 0.442383,0.65194 0.302683,0.24059 0.799394,0.24059 0.256117,0 0.481189,-0.10089 0.232833,-0.10866 0.380295,-0.33373 0.147461,-0.23284 0.147461,-0.59761 0,-0.3182 -0.155223,-0.55104 -0.147461,-0.24059 -0.4191,-0.44238 -0.271638,-0.20955 -0.636411,-0.42686 -0.364772,-0.22507 -0.682977,-0.45791 -0.318206,-0.23283 -0.512233,-0.53551 -0.186267,-0.31045 -0.186267,-0.74507 0,-0.4579 0.201789,-0.75283 0.20955,-0.30268 0.543277,-0.44238 0.333728,-0.14746 0.714023,-0.14746 z m 3.228628,3.00355 q 0.201789,0 0.34925,0.14746 0.147461,0.14746 0.147461,0.34925 0,0.20179 -0.147461,0.34925 -0.147461,0.14746 -0.34925,0.14746 -0.201789,0 -0.34925,-0.14746 -0.147461,-0.14746 -0.147461,-0.34925 0,-0.20179 0.147461,-0.34925 0.147461,-0.14746 0.34925,-0.14746 z m 3.17429,-2.91818 v 0.15522 q -0.263878,0.008 -0.403578,0.0621 -0.131939,0.0466 -0.178505,0.18627 -0.04657,0.13194 -0.04657,0.4191 v 3.84951 q 0,0.2794 0.04657,0.4191 0.04657,0.1397 0.178505,0.18627 0.1397,0.0388 0.403578,0.0388 h 0.566561 q 0.364772,0 0.589844,-0.0776 0.232834,-0.0776 0.364773,-0.24059 0.1397,-0.17075 0.20955,-0.45015 0.06985,-0.2794 0.108655,-0.68298 h 0.178506 q -0.02328,0.2406 -0.02328,0.63641 0,0.14747 0.0078,0.42687 0.01552,0.27163 0.04657,0.56656 -0.395817,-0.0155 -0.892528,-0.0155 -0.496711,-0.008 -0.884766,-0.008 -0.170745,0 -0.442383,0 -0.263878,0 -0.574323,0.008 -0.310444,0 -0.628649,0.008 -0.318206,0 -0.605367,0.008 v -0.15523 q 0.263878,-0.0155 0.395817,-0.0621 0.1397,-0.0466 0.186266,-0.18627 0.04657,-0.1397 0.04657,-0.4191 v -3.84951 q 0,-0.28716 -0.04657,-0.4191 -0.04657,-0.1397 -0.186266,-0.18627 -0.131939,-0.0543 -0.395817,-0.0621 v -0.15522 q 0.162983,0.008 0.426861,0.0155 0.263878,0.008 0.566561,0.008 0.271639,0 0.535517,-0.008 0.271639,-0.008 0.450144,-0.0155 z"
       id="text4556"
       aria-label="S·L" />
  </g>
</svg>
