<svg width="38" height="21.5" viewBox="0 0 10.054 5.689" xmlns="http://www.w3.org/2000/svg"><path style="font-size:7.76111px;line-height:1.25;font-family:'Playfair Display';-inkscape-font-specification:'Playfair Display, Normal';fill:#fff;stroke-width:.264583" d="M80.994 116.999q.388 0 .59.093.202.085.357.194l.148.085q.062.024.116.024.078 0 .109-.086.039-.085.062-.256h.178q-.007.132-.023.318-.008.179-.015.482v.783h-.179q-.023-.372-.163-.714-.14-.341-.411-.558-.264-.218-.699-.218-.411 0-.683.249-.264.248-.264.652 0 .349.179.59.178.232.473.426l.652.404q.404.248.714.497.318.24.497.535.186.295.186.714 0 .497-.225.823-.225.326-.597.489-.373.163-.823.163-.411 0-.652-.093-.24-.093-.411-.194-.171-.109-.264-.109-.078 0-.117.085-.03.086-.054.256h-.179q.016-.162.016-.38.008-.225.008-.582.008-.357.008-.9h.178q.031.465.17.87.148.403.443.651.303.24.8.24.256 0 .48-.1.234-.109.381-.334.148-.233.148-.598 0-.318-.156-.55-.147-.241-.419-.443-.271-.21-.636-.427-.365-.225-.683-.458-.318-.233-.512-.535-.187-.31-.187-.745 0-.458.202-.753.21-.303.543-.443.334-.147.714-.147zm3.229 3.003q.202 0 .35.148.147.147.147.35 0 .2-.148.348-.147.148-.349.148-.202 0-.35-.148-.147-.147-.147-.349 0-.202.148-.35.147-.147.349-.147zm3.174-2.918v.155q-.264.008-.403.063-.132.046-.179.186-.046.132-.046.419v3.85q0 .279.046.419.047.14.179.186.14.039.403.039h.567q.365 0 .59-.078.232-.078.364-.24.14-.171.21-.45.07-.28.109-.684h.178q-.023.24-.023.637 0 .147.008.427.015.271.046.566-.396-.015-.892-.015-.497-.008-.885-.008h-.442q-.264 0-.575.008-.31 0-.628.008-.319 0-.606.008v-.156q.264-.015.396-.062.14-.046.186-.186.047-.14.047-.42v-3.849q0-.287-.047-.419-.046-.14-.186-.186-.132-.054-.396-.062v-.155q.163.008.427.015.264.008.567.008.271 0 .535-.008.272-.008.45-.015z" aria-label="S·L" transform="translate(-79.496 -116.999)"/></svg>