<?xml version="1.0" encoding="UTF-8" standalone="no"?>
<!-- Created with Inkscape (http://www.inkscape.org/) -->

<svg
   width="24.783703mm"
   height="12.307316mm"
   viewBox="0 0 24.783703 12.307316"
   version="1.1"
   id="svg4273"
   sodipodi:docname="logo.svg"
   inkscape:version="1.3.2 (091e20e, 2023-11-25)"
   xmlns:inkscape="http://www.inkscape.org/namespaces/inkscape"
   xmlns:sodipodi="http://sodipodi.sourceforge.net/DTD/sodipodi-0.dtd"
   xmlns="http://www.w3.org/2000/svg"
   xmlns:svg="http://www.w3.org/2000/svg">
  <sodipodi:namedview
     id="namedview1"
     pagecolor="#ffffff"
     bordercolor="#000000"
     borderopacity="0.25"
     inkscape:showpageshadow="2"
     inkscape:pageopacity="0.0"
     inkscape:pagecheckerboard="0"
     inkscape:deskcolor="#d1d1d1"
     inkscape:document-units="mm"
     inkscape:zoom="6.5869058"
     inkscape:cx="46.835344"
     inkscape:cy="23.30381"
     inkscape:window-width="1392"
     inkscape:window-height="976"
     inkscape:window-x="0"
     inkscape:window-y="25"
     inkscape:window-maximized="0"
     inkscape:current-layer="svg4273" />
  <defs
     id="defs4270" />
  <g
     id="layer1"
     transform="translate(-79.496434,-116.99888)">
    <path
       style="font-size:7.76111px;line-height:1.25;font-family:'Playfair Display';-inkscape-font-specification:'Playfair Display, Normal';fill:#ece9e4;stroke-width:0.264583"
       d="m 80.994329,116.99888 q 0.388055,0 0.589844,0.0931 0.201789,0.0854 0.357011,0.19403 0.09313,0.0543 0.147461,0.0854 0.06209,0.0233 0.116417,0.0233 0.07761,0 0.108655,-0.0854 0.03881,-0.0854 0.06209,-0.25611 h 0.178506 q -0.0078,0.13194 -0.02328,0.3182 -0.0078,0.17851 -0.01552,0.48119 0,0.29492 0,0.78387 h -0.178505 q -0.02328,-0.37253 -0.162984,-0.71402 -0.1397,-0.34149 -0.411339,-0.5588 -0.263877,-0.21731 -0.698499,-0.21731 -0.411339,0 -0.682978,0.24836 -0.263878,0.24835 -0.263878,0.65193 0,0.34925 0.178506,0.58984 0.178505,0.23284 0.473427,0.42686 0.302684,0.18627 0.651934,0.40358 0.403577,0.24836 0.714022,0.49671 0.318205,0.2406 0.496711,0.53552 0.186266,0.29492 0.186266,0.71402 0,0.49671 -0.225072,0.82268 -0.225072,0.32597 -0.597605,0.48895 -0.372534,0.16298 -0.822678,0.16298 -0.411339,0 -0.651933,-0.0931 -0.240595,-0.0931 -0.411339,-0.19403 -0.170744,-0.10865 -0.263878,-0.10865 -0.07761,0 -0.116416,0.0854 -0.03105,0.0854 -0.05433,0.25611 h -0.178506 q 0.01552,-0.16298 0.01552,-0.38029 0.0078,-0.22507 0.0078,-0.58208 0.0078,-0.35701 0.0078,-0.90029 h 0.178505 q 0.03105,0.46566 0.170745,0.86924 0.147461,0.40358 0.442383,0.65194 0.302683,0.24059 0.799394,0.24059 0.256117,0 0.481189,-0.10089 0.232833,-0.10866 0.380295,-0.33373 0.147461,-0.23284 0.147461,-0.59761 0,-0.3182 -0.155223,-0.55104 -0.147461,-0.24059 -0.4191,-0.44238 -0.271638,-0.20955 -0.636411,-0.42686 -0.364772,-0.22507 -0.682977,-0.45791 -0.318206,-0.23283 -0.512233,-0.53551 -0.186267,-0.31045 -0.186267,-0.74507 0,-0.4579 0.201789,-0.75283 0.20955,-0.30268 0.543277,-0.44238 0.333728,-0.14746 0.714023,-0.14746 z m 3.228628,3.00355 q 0.201789,0 0.34925,0.14746 0.147461,0.14746 0.147461,0.34925 0,0.20179 -0.147461,0.34925 -0.147461,0.14746 -0.34925,0.14746 -0.201789,0 -0.34925,-0.14746 -0.147461,-0.14746 -0.147461,-0.34925 0,-0.20179 0.147461,-0.34925 0.147461,-0.14746 0.34925,-0.14746 z m 3.17429,-2.91818 v 0.15522 q -0.263878,0.008 -0.403578,0.0621 -0.131939,0.0466 -0.178505,0.18627 -0.04657,0.13194 -0.04657,0.4191 v 3.84951 q 0,0.2794 0.04657,0.4191 0.04657,0.1397 0.178505,0.18627 0.1397,0.0388 0.403578,0.0388 h 0.566561 q 0.364772,0 0.589844,-0.0776 0.232834,-0.0776 0.364773,-0.24059 0.1397,-0.17075 0.20955,-0.45015 0.06985,-0.2794 0.108655,-0.68298 h 0.178506 q -0.02328,0.2406 -0.02328,0.63641 0,0.14747 0.0078,0.42687 0.01552,0.27163 0.04657,0.56656 -0.395817,-0.0155 -0.892528,-0.0155 -0.496711,-0.008 -0.884766,-0.008 -0.170745,0 -0.442383,0 -0.263878,0 -0.574323,0.008 -0.310444,0 -0.628649,0.008 -0.318206,0 -0.605367,0.008 v -0.15523 q 0.263878,-0.0155 0.395817,-0.0621 0.1397,-0.0466 0.186266,-0.18627 0.04657,-0.1397 0.04657,-0.4191 v -3.84951 q 0,-0.28716 -0.04657,-0.4191 -0.04657,-0.1397 -0.186266,-0.18627 -0.131939,-0.0543 -0.395817,-0.0621 v -0.15522 q 0.162983,0.008 0.426861,0.0155 0.263878,0.008 0.566561,0.008 0.271639,0 0.535517,-0.008 0.271639,-0.008 0.450144,-0.0155 z"
       id="text4556"
       aria-label="S·L" />
    <path
       style="font-size:5.29167px;line-height:1.25;font-family:Raleway;-inkscape-font-specification:'Raleway, @wght=200';font-variation-settings:'wght' 200;fill:#ece9e4;stroke-width:0.264583"
       d="m 79.485855,127.36944 q 0,-0.33866 0.116416,-0.66675 0.121709,-0.33337 0.349251,-0.60325 0.227541,-0.27516 0.555625,-0.43921 0.333375,-0.16404 0.756709,-0.16404 0.502708,0 0.85725,0.23284 0.354542,0.22754 0.529167,0.58737 l -0.22225,0.127 q -0.132292,-0.25929 -0.328083,-0.41275 -0.1905,-0.15346 -0.412751,-0.21696 -0.22225,-0.0688 -0.4445,-0.0688 -0.354542,0 -0.635,0.14288 -0.275167,0.14287 -0.465667,0.381 -0.1905,0.23812 -0.291042,0.52916 -0.09525,0.29104 -0.09525,0.58738 0,0.33337 0.116417,0.635 0.116416,0.29633 0.3175,0.52917 0.206375,0.23283 0.47625,0.37041 0.275167,0.13759 0.592667,0.13759 0.227542,0 0.460375,-0.0741 0.238126,-0.0794 0.444501,-0.23812 0.206375,-0.16404 0.333375,-0.42334 l 0.232833,0.11113 q -0.121708,0.28046 -0.365125,0.47625 -0.243417,0.19579 -0.53975,0.29633 -0.296334,0.10054 -0.587376,0.10054 -0.381,0 -0.703792,-0.16404 -0.322792,-0.16933 -0.560917,-0.4445 -0.232833,-0.28046 -0.359833,-0.62441 -0.127,-0.34925 -0.127,-0.7038 z m 5.371048,1.93146 q -0.391584,0 -0.714376,-0.15875 -0.322792,-0.16404 -0.555625,-0.43391 -0.232834,-0.26988 -0.359834,-0.60855 -0.127,-0.34395 -0.127,-0.70379 0,-0.37571 0.132292,-0.71437 0.132292,-0.34396 0.370417,-0.60855 0.243417,-0.26987 0.560917,-0.42333 0.322792,-0.15875 0.6985,-0.15875 0.396875,0 0.714376,0.16404 0.322792,0.16404 0.555625,0.43921 0.232833,0.27517 0.359834,0.61383 0.127,0.33867 0.127,0.68792 0,0.381 -0.132292,0.72496 -0.132292,0.33867 -0.375709,0.60854 -0.238125,0.26459 -0.560917,0.41804 -0.3175,0.15346 -0.693208,0.15346 z m -1.48696,-1.905 q 0,0.32279 0.111125,0.61913 0.111125,0.29633 0.306917,0.52916 0.201084,0.23284 0.470959,0.37042 0.275167,0.13758 0.60325,0.13758 0.333375,0 0.608542,-0.14287 0.275167,-0.14288 0.470959,-0.381 0.195792,-0.23813 0.296333,-0.52917 0.105834,-0.29633 0.105834,-0.60325 0,-0.32279 -0.111125,-0.61912 -0.105834,-0.29634 -0.306917,-0.52917 -0.201084,-0.23283 -0.47625,-0.37042 -0.269876,-0.13758 -0.587376,-0.13758 -0.338667,0 -0.613833,0.14287 -0.275167,0.14288 -0.470959,0.381 -0.1905,0.23813 -0.301625,0.53446 -0.105834,0.29104 -0.105834,0.59796 z m 4.243921,-1.37583 v 3.25437 h -0.269875 v -3.75708 h 0.22225 l 2.619376,3.30729 v -3.30729 h 0.269876 v 3.75708 h -0.264584 z m 3.561297,1.34937 q 0,-0.33866 0.116417,-0.66675 0.121708,-0.33337 0.34925,-0.60325 0.227542,-0.27516 0.555625,-0.43921 0.333375,-0.16404 0.756709,-0.16404 0.502709,0 0.857251,0.23284 0.354541,0.22754 0.529167,0.58737 l -0.222251,0.127 q -0.132291,-0.25929 -0.328083,-0.41275 -0.1905,-0.15346 -0.41275,-0.21696 -0.222251,-0.0688 -0.444501,-0.0688 -0.354542,0 -0.635,0.14288 -0.275167,0.14287 -0.465667,0.381 -0.1905,0.23812 -0.291042,0.52916 -0.09525,0.29104 -0.09525,0.58738 0,0.33337 0.116417,0.635 0.116417,0.29633 0.3175,0.52917 0.206375,0.23283 0.47625,0.37041 0.275167,0.13759 0.592667,0.13759 0.227542,0 0.460376,-0.0741 0.238125,-0.0794 0.4445,-0.23812 0.206375,-0.16404 0.333375,-0.42334 l 0.232834,0.11113 q -0.121709,0.28046 -0.365126,0.47625 -0.243416,0.19579 -0.53975,0.29633 -0.296333,0.10054 -0.587375,0.10054 -0.381001,0 -0.703792,-0.16404 -0.322792,-0.16933 -0.560917,-0.4445 -0.232834,-0.28046 -0.359834,-0.62441 -0.127,-0.34925 -0.127,-0.7038 z m 6.413507,1.66159 v 0.24341 h -2.50296 v -3.75708 h 2.455335 v 0.24342 h -2.185459 v 1.47637 h 1.910292 v 0.23284 h -1.910292 v 1.56104 z m 0.73554,0.24341 v -3.75708 h 1.545168 q 0.238124,0 0.433914,0.10054 0.20109,0.10054 0.34925,0.26988 0.14817,0.16404 0.22754,0.37041 0.0847,0.20638 0.0847,0.42334 0,0.30162 -0.13758,0.5715 -0.13229,0.26458 -0.37042,0.43391 -0.23283,0.16934 -0.555624,0.16934 h -1.307043 v 1.41816 z m 0.269875,-1.66687 h 1.296459 q 0.248708,0 0.428628,-0.13229 0.17991,-0.13229 0.27516,-0.34396 0.0953,-0.21167 0.0953,-0.44979 0,-0.24871 -0.11641,-0.45509 -0.11113,-0.21166 -0.30163,-0.33866 -0.18521,-0.127 -0.412748,-0.127 h -1.264709 z m 5.640927,-1.84679 h -1.37584 v 3.51366 h -0.26987 v -3.51366 h -1.37584 v -0.24342 h 3.02155 z"
       id="text9583"
       aria-label="CONCEPT" />
  </g>
</svg>
