<svg width="93.671" height="46.516" viewBox="0 0 24.784 12.307" xmlns="http://www.w3.org/2000/svg"><path style="font-size:7.76111px;line-height:1.25;font-family:'Playfair Display';-inkscape-font-specification:'Playfair Display, Normal';fill:#ece9e4;stroke-width:.264583" d="M80.994 116.999q.388 0 .59.093.202.085.357.194l.148.085q.062.024.116.024.078 0 .109-.086.039-.085.062-.256h.178q-.007.132-.023.318-.008.179-.015.482v.783h-.179q-.023-.372-.163-.714-.14-.341-.411-.558-.264-.218-.699-.218-.411 0-.683.249-.264.248-.264.652 0 .349.179.59.178.232.473.426l.652.404q.404.248.714.497.318.24.497.535.186.295.186.714 0 .497-.225.823-.225.326-.597.489-.373.163-.823.163-.411 0-.652-.093-.24-.093-.411-.194-.171-.109-.264-.109-.078 0-.117.085-.03.086-.054.256h-.179q.016-.162.016-.38.008-.225.008-.582.008-.357.008-.9h.178q.031.465.17.87.148.403.443.651.303.24.8.24.256 0 .48-.1.234-.109.381-.334.148-.233.148-.598 0-.318-.156-.55-.147-.241-.419-.443-.271-.21-.636-.427-.365-.225-.683-.458-.318-.233-.512-.535-.187-.31-.187-.745 0-.458.202-.753.21-.303.543-.443.334-.147.714-.147zm3.229 3.003q.202 0 .35.148.147.147.147.35 0 .2-.148.348-.147.148-.349.148-.202 0-.35-.148-.147-.147-.147-.349 0-.202.148-.35.147-.147.349-.147zm3.174-2.918v.155q-.264.008-.403.063-.132.046-.179.186-.046.132-.046.419v3.85q0 .279.046.419.047.14.179.186.14.039.403.039h.567q.365 0 .59-.078.232-.078.364-.24.14-.171.21-.45.07-.28.109-.684h.178q-.023.24-.023.637 0 .147.008.427.015.271.046.566-.396-.015-.892-.015-.497-.008-.885-.008h-.442q-.264 0-.575.008-.31 0-.628.008-.319 0-.606.008v-.156q.264-.015.396-.062.14-.046.186-.186.047-.14.047-.42v-3.849q0-.287-.047-.419-.046-.14-.186-.186-.132-.054-.396-.062v-.155q.163.008.427.015.264.008.567.008.271 0 .535-.008.272-.008.45-.015z" aria-label="S·L" transform="translate(-79.496 -116.999)"/><path style="font-size:5.29167px;line-height:1.25;font-family:Raleway;-inkscape-font-specification:'Raleway, @wght=200';font-variation-settings:'wght' 200;fill:#ece9e4;stroke-width:.264583" d="M79.486 127.37q0-.34.116-.667.122-.334.35-.604.227-.275.555-.439.334-.164.757-.164.503 0 .857.233.355.228.53.587l-.223.127q-.132-.259-.328-.412-.19-.154-.413-.217-.222-.07-.444-.07-.355 0-.635.144-.275.143-.466.38-.19.239-.291.53-.095.291-.095.587 0 .334.116.635.117.297.318.53.206.232.476.37.275.137.593.137.227 0 .46-.074.238-.079.444-.238.207-.164.334-.423l.233.111q-.122.28-.365.476-.244.196-.54.297-.297.1-.588.1-.38 0-.703-.164-.323-.17-.561-.444-.233-.28-.36-.625-.127-.349-.127-.704zm5.37 1.93q-.39 0-.713-.158-.323-.164-.556-.434-.233-.27-.36-.608-.127-.344-.127-.704 0-.376.132-.714.133-.344.37-.609.244-.27.562-.423.322-.16.698-.16.397 0 .715.165.322.164.555.44.233.274.36.613.127.339.127.688 0 .38-.132.725-.133.339-.376.608-.238.265-.56.418-.318.154-.694.154zm-1.486-1.904q0 .323.111.619t.307.53q.201.232.47.37.276.137.604.137.334 0 .609-.143.275-.143.47-.38.196-.239.297-.53.106-.296.106-.603 0-.323-.111-.62-.106-.296-.307-.528-.201-.233-.476-.37-.27-.138-.588-.138-.338 0-.614.142-.275.143-.47.381-.191.239-.302.535-.106.291-.106.598zm4.244-1.376v3.254h-.27v-3.757h.222l2.62 3.308v-3.308h.27v3.757h-.265zm3.561 1.35q0-.34.117-.667.121-.334.349-.604.227-.275.555-.439.334-.164.757-.164.503 0 .857.233.355.228.53.587l-.223.127q-.132-.259-.328-.412-.19-.154-.413-.217-.222-.07-.444-.07-.355 0-.635.144-.275.143-.466.38-.19.239-.29.53-.096.291-.096.587 0 .334.116.635.117.297.318.53.206.232.476.37.275.137.593.137.227 0 .46-.074.238-.079.445-.238.206-.164.333-.423l.233.111q-.122.28-.365.476-.244.196-.54.297-.296.1-.587.1-.381 0-.704-.164-.323-.17-.561-.444-.233-.28-.36-.625-.127-.349-.127-.704zm6.414 1.661v.243h-2.503v-3.757h2.455v.244h-2.185v1.476h1.91v.233h-1.91v1.561zm.735.243v-3.757h1.545q.239 0 .434.1.201.101.35.27.148.165.227.371.085.207.085.424 0 .301-.138.571-.132.265-.37.434-.233.17-.556.17h-1.307v1.417zm.27-1.666h1.297q.248 0 .428-.133.18-.132.275-.344.096-.211.096-.45 0-.248-.117-.455-.11-.211-.301-.338-.186-.127-.413-.127h-1.265zm5.641-1.847h-1.376v3.513h-.27v-3.513h-1.376v-.244h3.022z" aria-label="CONCEPT" transform="translate(-79.496 -116.999)"/></svg>